<svg xmlns="http://www.w3.org/2000/svg" xmlns:xlink="http://www.w3.org/1999/xlink" viewBox="0 0 800 600"><defs><style>.cls-1{fill:none;}.cls-2{isolation:isolate;}.cls-3{clip-path:url(#clip-path);}.cls-4{fill:url(#Dégradé_sans_nom_20);}.cls-5{opacity:0.35;mix-blend-mode:multiply;}.cls-6{fill:url(#Dégradé_sans_nom_4);}.cls-7{fill:url(#Dégradé_sans_nom_4-2);}.cls-18,.cls-8{fill:#fff;}.cls-9{fill:#fcc306;}.cls-10,.cls-16{fill:#fdeba0;}.cls-11{fill:#0971b7;}.cls-12{fill:#2baae2;}.cls-13{fill:#fdfdfd;}.cls-14{fill:#f7ab14;}.cls-15{fill:#004666;}.cls-16,.cls-18{opacity:0.2;}.cls-17{fill:#ffefdc;}</style><clipPath id="clip-path"><rect class="cls-1" y="-0.25" width="800" height="598.5"/></clipPath><linearGradient id="Dégradé_sans_nom_20" x1="387.93" y1="328.06" x2="387.93" y2="-0.25" gradientUnits="userSpaceOnUse"><stop offset="0" stop-color="#b61827"/><stop offset="1" stop-color="#ff4842"/></linearGradient><linearGradient id="Dégradé_sans_nom_4" x1="114.22" y1="355.67" x2="114.22" y2="277.32" gradientUnits="userSpaceOnUse"><stop offset="0" stop-color="#bd1622"/><stop offset="1" stop-color="#ef5350"/></linearGradient><linearGradient id="Dégradé_sans_nom_4-2" x1="680.91" y1="373.7" x2="680.91" y2="278.59" xlink:href="#Dégradé_sans_nom_4"/></defs><title>Plan de travail 1</title><g class="cls-2"><g id="Calque_1" data-name="Calque 1"><g class="cls-3"><rect class="cls-4" x="-24.04" y="-0.25" width="823.94" height="328.31"/><g class="cls-5"><path class="cls-6" d="M202.18,277.32a30.13,30.13,0,0,0-26,14.89,30.28,30.28,0,0,0-21.24,1.26,30.2,30.2,0,0,0-50.32-1.4,30.21,30.21,0,0,0-25.21,1.23,30.22,30.22,0,0,0-40.17,5.3A30,30,0,1,0,49.28,345a30.28,30.28,0,0,0,26.89-.51A30.21,30.21,0,0,0,118,337.05a30.32,30.32,0,0,0,23.55-.43,30.2,30.2,0,0,0,51.65-.68,30,30,0,1,0,9-58.62Z"/><path class="cls-7" d="M1120.21,333.73a29.49,29.49,0,0,0-31.29-27.54,30.71,30.71,0,0,0-5.88.95,29.83,29.83,0,0,0-7.94-.58,29.48,29.48,0,0,0-10.43,2.59,29.66,29.66,0,0,0-26.92,1.38,29.63,29.63,0,0,0-34-3.2,29.66,29.66,0,0,0-20.81,0,29.61,29.61,0,0,0-34.8.48A29.6,29.6,0,0,0,903,316.44a29.63,29.63,0,0,0-32.62-.67,29.61,29.61,0,0,0-49.68,0A29.6,29.6,0,0,0,774.28,317a29.57,29.57,0,0,0-18-1.28,29.59,29.59,0,0,0-51.19-6.85,29.66,29.66,0,0,0-27.32,2.75,29.64,29.64,0,0,0-16.56-1.37,29.59,29.59,0,0,0-18.45.88,29.67,29.67,0,0,0-27-.26A29.63,29.63,0,0,0,582,305.64a29.45,29.45,0,0,0-12.11-2.59,29.77,29.77,0,0,0-8.65,1.28,29.62,29.62,0,0,0-34.77-1.64,29.6,29.6,0,0,0-45.64,5.91,29.66,29.66,0,0,0-32.51-2.66,29.61,29.61,0,0,0-49.59-3,29.61,29.61,0,0,0-46.38-1.59,29.62,29.62,0,0,0-12.69-2.85,30.12,30.12,0,0,0-5.24.47,29.59,29.59,0,0,0-50.67-10,29.39,29.39,0,1,0,9.87,45.51,29.4,29.4,0,0,0,12.69,2.85,30.1,30.1,0,0,0,5.23-.47,29.6,29.6,0,0,0,50.68,9.95,29.63,29.63,0,0,0,36.51-9.17,29.62,29.62,0,0,0,38.07,8.37,29.6,29.6,0,0,0,51,.94,29.64,29.64,0,0,0,34.52,1.45,29.68,29.68,0,0,0,29.07,6.89,29.63,29.63,0,0,0,31.65,3.43,29.68,29.68,0,0,0,25.35-.52,29.62,29.62,0,0,0,31.16,6.38,29.78,29.78,0,0,0,19.66,2.78,29.6,29.6,0,0,0,24.17-3.81,29.64,29.64,0,0,0,34.31-9.87,29.71,29.71,0,0,0,12.84,2.07,30.5,30.5,0,0,0,5.19-.79,29.61,29.61,0,0,0,51.2,6.85,29.67,29.67,0,0,0,35.88-11.38,29.66,29.66,0,0,0,38.51,6,29.61,29.61,0,0,0,50.95-2.17,29.63,29.63,0,0,0,34.54-.65,29.71,29.71,0,0,0,29.44,5.11,29.68,29.68,0,0,0,31.79,1.5,29.71,29.71,0,0,0,25.27-2.07,29.63,29.63,0,0,0,31.5,4.47,29.48,29.48,0,0,0,13.91,2.53,29.82,29.82,0,0,0,5.88-.95,29.83,29.83,0,0,0,7.94.58A29.44,29.44,0,0,0,1120.21,333.73Z"/></g><path class="cls-8" d="M262.94,275.67a1.62,1.62,0,1,0-2.31,0A1.65,1.65,0,0,0,262.94,275.67Z"/><path class="cls-8" d="M255,256.87a1.62,1.62,0,1,0-2.3,0A1.61,1.61,0,0,0,255,256.87Z"/><path class="cls-8" d="M268.22,268.92a1.61,1.61,0,0,0,0-2.29,1.64,1.64,0,0,0-2.3,0,1.59,1.59,0,0,0,0,2.28A1.61,1.61,0,0,0,268.22,268.92Z"/><path class="cls-8" d="M224.64,266a1.61,1.61,0,0,0,0,2.28,1.64,1.64,0,0,0,2.3,0,1.6,1.6,0,0,0,0-2.28A1.62,1.62,0,0,0,224.64,266Z"/><path class="cls-8" d="M256.45,266.75a3.4,3.4,0,0,0,.07-4.83,3.45,3.45,0,0,0-4.85,0,3.37,3.37,0,0,0-.06,4.81A3.42,3.42,0,0,0,256.45,266.75Z"/><path class="cls-8" d="M271.67,275.63a1.62,1.62,0,0,0,0-2.29,1.65,1.65,0,0,0-2.3,0,1.62,1.62,0,0,0,2.27,2.32Z"/><path class="cls-8" d="M226.25,254.63a1.62,1.62,0,1,0-2.3,0A1.61,1.61,0,0,0,226.25,254.63Z"/><path class="cls-8" d="M294.81,291.05a3.38,3.38,0,0,0,.07-4.82,3.43,3.43,0,0,0-4.84-.05A3.37,3.37,0,0,0,290,291,3.43,3.43,0,0,0,294.81,291.05Z"/><path class="cls-8" d="M275.32,280.8a1.61,1.61,0,0,0,0-2.29,1.65,1.65,0,0,0-2.3,0,1.62,1.62,0,0,0,2.27,2.32Z"/><path class="cls-8" d="M280.78,278.23a1.61,1.61,0,0,0,0-2.28,1.65,1.65,0,0,0-2.31,0,1.62,1.62,0,0,0,2.27,2.31Z"/><path class="cls-8" d="M281.42,284.44a1.64,1.64,0,0,0,2.3,0,1.6,1.6,0,0,0,0-2.28,1.62,1.62,0,1,0-2.33,2.26Z"/><path class="cls-8" d="M199.16,284.22a1.61,1.61,0,0,0,0-2.29,1.64,1.64,0,0,0-2.3,0,1.62,1.62,0,0,0,2.27,2.32Z"/><path class="cls-8" d="M207.65,280.76a1.62,1.62,0,1,0-2.3,0A1.64,1.64,0,0,0,207.65,280.76Z"/><path class="cls-8" d="M224.24,263.48a1.61,1.61,0,0,0,0-2.28,1.65,1.65,0,0,0-2.3,0,1.62,1.62,0,1,0,2.27,2.31Z"/><path class="cls-8" d="M185.62,295.87a3.42,3.42,0,1,0-4.86-.06A3.46,3.46,0,0,0,185.62,295.87Z"/><path class="cls-8" d="M211.44,275.68a1.62,1.62,0,1,0-2.3,0A1.61,1.61,0,0,0,211.44,275.68Z"/><path class="cls-8" d="M217.87,275.9a1.62,1.62,0,1,0,0-2.28A1.61,1.61,0,0,0,217.87,275.9Z"/><path class="cls-8" d="M216,268.76a1.61,1.61,0,0,0,0,2.29,1.62,1.62,0,1,0,0-2.29Z"/><path class="cls-8" d="M215.45,282a1.62,1.62,0,1,0-2.29,0A1.61,1.61,0,0,0,215.45,282Z"/><path class="cls-8" d="M217.69,262.74a1.61,1.61,0,0,0,0-2.29,1.63,1.63,0,0,0-2.29,0,1.6,1.6,0,0,0,0,2.28A1.64,1.64,0,0,0,217.69,262.74Z"/><path class="cls-8" d="M806.08,339.06a15.45,15.45,0,0,0-16.39-14.43,16.36,16.36,0,0,0-3.08.5,15.65,15.65,0,0,0-9.62,1.05,15.55,15.55,0,0,0-14.1.73,15.52,15.52,0,0,0-17.8-1.68,15.44,15.44,0,0,0-6.42-1,15.82,15.82,0,0,0-4.48.95,15.51,15.51,0,0,0-18.23.25A15.51,15.51,0,0,0,692.29,330a15.53,15.53,0,0,0-17.08-.35,15.51,15.51,0,0,0-26,0,15.52,15.52,0,0,0-24.3.65,15.42,15.42,0,0,0-6.73-1.08,15.25,15.25,0,0,0-2.72.41,15.51,15.51,0,0,0-26.82-3.59,15.58,15.58,0,0,0-14.31,1.44,15.51,15.51,0,0,0-5.56-1,16,16,0,0,0-3.11.31,15.5,15.5,0,0,0-9.66.46,15.56,15.56,0,0,0-14.12-.13,15.55,15.55,0,0,0-17.67-2.76,15.6,15.6,0,0,0-10.87-.68,15.49,15.49,0,0,0-18.21-.86,15.52,15.52,0,0,0-23.91,3.09,15.53,15.53,0,0,0-17-1.39,15.5,15.5,0,0,0-26-1.57,15.51,15.51,0,0,0-24.3-.83,15.63,15.63,0,0,0-9.39-1.25,15.52,15.52,0,0,0-22.84-8.39,8.07,8.07,0,0,0-9.31,1.39l-.3.32-.74,0a15.44,15.44,0,0,0-11.15,4.73,15.64,15.64,0,0,0-1.86,1.52l-.49.51a17.79,17.79,0,0,0-2.84-3.82,17.52,17.52,0,0,0-24.69-.28l-.37.35a20.28,20.28,0,0,0-5.75-16,20.61,20.61,0,0,0-26.7-2.28,27.43,27.43,0,0,0-4.71-6.4,27.94,27.94,0,0,0-16-8.12,2.41,2.41,0,0,0-1.26-.31,19.3,19.3,0,0,1-19.1-19.51l1.23-75.92-14-.18-1.24,75.91a19.3,19.3,0,0,1-17,18.88,28,28,0,0,0-25.93,16.94,21,21,0,0,0-22.61,4.31,20.67,20.67,0,0,0-5.61,9.6,11,11,0,0,0-1.8,1.41,9.79,9.79,0,0,0-.87,1,7.93,7.93,0,0,0-2-3.52,8,8,0,0,0-13.29,2.8,8,8,0,0,0-9,5.94,14.76,14.76,0,0,0-22.5-2.24l-.29.3a15.52,15.52,0,0,0-26.08,1,15.59,15.59,0,0,0-10.91.65,15.5,15.5,0,0,0-25.83-.72,15.52,15.52,0,0,0-13,.63,15.53,15.53,0,0,0-20.63,2.72A15.48,15.48,0,0,0-7,338,15.36,15.36,0,0,0,.5,351.18V598.25H799V353A15.38,15.38,0,0,0,806.08,339.06Z"/><path class="cls-9" d="M240.25,223.18c24-36.07,8.92-51.87,8.92-51.87H231.25s-15.08,15.8,8.92,51.87v.13a.43.43,0,0,1,0-.07.16.16,0,0,1,0,.07Z"/><path class="cls-10" d="M239.9,214.43c18.65-27.63,5-42.91,5-42.91h-5.08s-4.05-1.08-5,0C222.65,184.94,239.9,214.43,239.9,214.43Z"/><g id="rocket"><rect class="cls-11" x="227.85" y="164.57" width="21.91" height="7.06" transform="translate(-2.24 3.22) rotate(-0.77)"/><path class="cls-12" d="M237.73,134.44c-21.14.29-38,17.26-37.75,37.92a36.66,36.66,0,0,0,2.81,13.56,38.59,38.59,0,0,1,71.29-.95,36.44,36.44,0,0,0,2.43-13.64C276.22,150.68,258.86,134.16,237.73,134.44Z"/><path class="cls-11" d="M247.89,162.77A38.08,38.08,0,0,1,274.08,185a36.44,36.44,0,0,0,2.43-13.64c-.24-17.35-12.54-31.78-29-35.78Z"/><path class="cls-13" d="M213.92,122.59c.24,17.63,4.28,33.71,10.78,46.14a45.59,45.59,0,0,1,27-.37c6.15-12.59,9.74-28.77,9.49-46.4-.39-28-10.34-52.12-24.53-63.82C222.8,70.22,213.52,94.59,213.92,122.59Z"/><path class="cls-14" d="M219.59,85.45l-1,3.26s20.19-2.51,37.56-.13L254.48,85S231.16,82.48,219.59,85.45Z"/><path class="cls-12" d="M234.65,158.92c.17,11.65,2.37,21.7,5.45,26.61,2.94-5,4.86-15.1,4.7-26.74s-2.37-21.7-5.45-26.61C236.41,137.17,234.49,147.28,234.65,158.92Z"/><path class="cls-11" d="M240,185.29c0,.08.09.17.14.24,2.94-5,4.86-15.1,4.7-26.74s-2.37-21.7-5.45-26.61c0,.07-.08.17-.13.24Z"/><path class="cls-12" d="M219.59,85.45c5.68-.44,11.5-.72,17.44-.8s11.77,0,17.45.34C250.15,73.52,244,64.17,236.66,58.14,229.51,64.36,223.6,73.88,219.59,85.45Z"/><path class="cls-11" d="M237.61,84.64q8.61-.09,16.87.35C250.15,73.52,244,64.17,236.66,58.14l-.38.34Z"/><path class="cls-14" d="M237.38,99.05h-.15a10.52,10.52,0,0,0-7.37,3.1,10.06,10.06,0,0,0-3,7.28,10.41,10.41,0,0,0,10.48,10.11h.15a10.25,10.25,0,1,0-.14-20.49Z"/><path class="cls-15" d="M237.27,101.54a7.76,7.76,0,1,0,8,7.65A7.84,7.84,0,0,0,237.27,101.54Z"/></g><g id="points"><path class="cls-16" d="M210.37,233.06h0a1,1,0,0,1,1.41,0,1,1,0,1,1-1.41,0"/><path class="cls-16" d="M207.94,199.25h0a1.62,1.62,0,0,1,2.29,0,1.62,1.62,0,1,1-2.29,0"/><path class="cls-16" d="M165.19,204.22h0a1.62,1.62,0,0,1,2.29,0,1.6,1.6,0,0,1,0,2.28,1.63,1.63,0,0,1-2.3,0,1.6,1.6,0,0,1,0-2.28"/><path class="cls-16" d="M177.6,164.6h0a1,1,0,0,1,1.41,0,1,1,0,0,1,0,1.4,1,1,0,0,1-1.41,0,1,1,0,0,1,0-1.4"/><path class="cls-16" d="M192,119h0a1.63,1.63,0,0,1,2.29,0,1.61,1.61,0,0,1,0,2.29A1.62,1.62,0,1,1,192,119"/><path class="cls-8" d="M154.54,113.16h0a1.62,1.62,0,0,1,2.29,0,1.6,1.6,0,0,1,0,2.28,1.63,1.63,0,0,1-2.3,0,1.6,1.6,0,0,1,0-2.28"/><path class="cls-16" d="M189.41,81.82h0a1,1,0,0,1,1.41,0,1,1,0,0,1,0,1.4,1,1,0,1,1-1.39-1.42"/><path class="cls-16" d="M144.25,38.36h0a1,1,0,1,1,0,1.4,1,1,0,0,1,0-1.4"/><path class="cls-16" d="M208.94,45.28h0a1.62,1.62,0,0,1,2.29,0,1.62,1.62,0,1,1-2.29,0"/><path class="cls-16" d="M230,11h0a1,1,0,0,1,1.41,0,1,1,0,0,1,0,1.4A1,1,0,1,1,230,11"/><path class="cls-13" d="M275.23,42.05h0a1.62,1.62,0,0,1,2.29,0,1.6,1.6,0,0,1,0,2.28,1.62,1.62,0,1,1-2.27-2.31"/><path class="cls-16" d="M327.3,79.63h0a1.63,1.63,0,0,1,2.29,0,1.62,1.62,0,1,1-2.29,0"/><path class="cls-16" d="M270.59,80.08h0a1,1,0,0,1,1.41,0,1,1,0,0,1,0,1.4,1,1,0,1,1-1.39-1.42"/><path class="cls-16" d="M303.61,108.06h0a1,1,0,0,1,1.41,0,1,1,0,0,1,0,1.4,1,1,0,1,1-1.4-1.42"/><path class="cls-16" d="M275.23,123.51h0a1.62,1.62,0,0,1,2.29,0,1.6,1.6,0,0,1,0,2.28,1.64,1.64,0,0,1-2.3,0,1.6,1.6,0,0,1,0-2.28"/><path class="cls-16" d="M311.39,145.7h0a1,1,0,0,1,1.41,0,1,1,0,0,1,0,1.41,1,1,0,1,1-1.39-1.43"/><path class="cls-16" d="M27.45,176.73h0a1.62,1.62,0,1,1,0,2.29,1.62,1.62,0,0,1,0-2.29"/><path class="cls-16" d="M11.48,96.44h0a1.62,1.62,0,0,1,2.29,0,1.6,1.6,0,0,1,0,2.28,1.62,1.62,0,0,1-2.29,0,1.6,1.6,0,0,1,0-2.28"/><path class="cls-16" d="M8.92,59.3h0a1,1,0,0,1,1.41,0,1,1,0,0,1,0,1.4A1,1,0,1,1,8.92,59.3"/><path class="cls-8" d="M28.45,22.76h0a1.62,1.62,0,1,1,0,2.29,1.61,1.61,0,0,1,0-2.29"/><path class="cls-16" d="M94.74,19.53h0a1.63,1.63,0,0,1,2.29,0,1.61,1.61,0,0,1,0,2.29,1.62,1.62,0,0,1-2.26-2.32"/><path class="cls-16" d="M90.1,57.56h0a1,1,0,0,1,1.41,0,1,1,0,0,1,0,1.4,1,1,0,1,1-1.39-1.42"/><path class="cls-16" d="M123.12,85.54h0a1,1,0,0,1,1.41,0,1,1,0,0,1,0,1.4,1,1,0,1,1-1.4-1.42"/><path class="cls-16" d="M94.74,101h0A1.62,1.62,0,0,1,97,101a1.59,1.59,0,0,1,0,2.28A1.62,1.62,0,1,1,94.74,101"/><path class="cls-16" d="M130.9,123.19h0a1,1,0,1,1,0,1.4,1,1,0,0,1,0-1.4"/><path class="cls-8" d="M130.86,201.13h0a1.62,1.62,0,1,1,2.3-.12,1.64,1.64,0,0,1-2.3.12"/><path class="cls-16" d="M138.65,243.26h0a1.61,1.61,0,0,1-.12-2.28,1.64,1.64,0,0,1,2.29-.12,1.62,1.62,0,1,1-2.17,2.4"/><path class="cls-16" d="M98.11,233.54h0a1,1,0,0,1-.07-1.4,1,1,0,0,1,1.41-.08,1,1,0,0,1,.07,1.4,1,1,0,0,1-1.41.08"/><path class="cls-16" d="M51.41,222.26h0a1.6,1.6,0,0,1-.13-2.28,1.65,1.65,0,0,1,2.3-.12,1.62,1.62,0,1,1-2.17,2.4"/><path class="cls-16" d="M48.05,259.81h0a1.6,1.6,0,0,1-.12-2.27,1.63,1.63,0,0,1,2.29-.13,1.61,1.61,0,0,1,.12,2.29,1.62,1.62,0,0,1-2.29.11"/><path class="cls-8" d="M14.34,227.24h0a1,1,0,1,1,1.41-.07,1,1,0,0,1-1.41.07"/><path class="cls-16" d="M7.27,146.74h0a1,1,0,0,1-.08-1.4,1,1,0,1,1,1.48,1.33,1,1,0,0,1-1.4.07"/><path class="cls-16" d="M33.15,112.11h0a1,1,0,0,1-.08-1.4,1,1,0,0,1,1.41-.08,1,1,0,0,1,.08,1.41,1,1,0,0,1-1.41.07"/><path class="cls-8" d="M50.5,139.28h0a1.62,1.62,0,1,1,2.29-.12,1.61,1.61,0,0,1-2.29.12"/><path class="cls-16" d="M70.38,101.91h0a1,1,0,0,1-.07-1.4,1,1,0,0,1,1.41-.07,1,1,0,0,1,.07,1.4,1,1,0,0,1-1.41.07"/><path class="cls-16" d="M758.14,342.77h0a1.6,1.6,0,0,1-.12-2.28,1.63,1.63,0,0,1,2.29-.12,1.62,1.62,0,1,1-2.17,2.4"/><path class="cls-16" d="M754.79,380.32h0a1.59,1.59,0,0,1-.12-2.27,1.62,1.62,0,1,1,.12,2.27"/><path class="cls-16" d="M721.07,347.75h0a1,1,0,0,1-.07-1.4,1,1,0,0,1,1.41-.07,1,1,0,0,1,.07,1.4,1,1,0,0,1-1.41.07"/><path class="cls-16" d="M680.47,395.46h0a1,1,0,0,1-.08-1.4,1,1,0,1,1,1.48,1.33,1,1,0,0,1-1.4.07"/><path class="cls-16" d="M683.16,330.76h0a1.6,1.6,0,0,1-.12-2.28,1.63,1.63,0,0,1,2.29-.12,1.61,1.61,0,0,1,.12,2.28,1.63,1.63,0,0,1-2.29.12"/><path class="cls-16" d="M675.57,265.14h0a1.61,1.61,0,0,1-.13-2.28,1.64,1.64,0,0,1,2.3-.12,1.61,1.61,0,0,1,.12,2.28,1.63,1.63,0,0,1-2.29.12"/><path class="cls-16" d="M714,267.25h0a1,1,0,0,1-.08-1.4,1,1,0,0,1,1.41-.08,1,1,0,0,1,.08,1.41,1,1,0,0,1-1.41.07"/><path class="cls-16" d="M739.88,232.62h0a1,1,0,0,1-.07-1.4,1,1,0,1,1,.07,1.4"/><path class="cls-8" d="M757.24,259.79h0a1.61,1.61,0,0,1-.13-2.28,1.64,1.64,0,0,1,2.3-.12,1.61,1.61,0,0,1,.12,2.28,1.63,1.63,0,0,1-2.29.12"/><path class="cls-16" d="M777.12,222.42h0A1,1,0,0,1,777,221a1,1,0,0,1,1.41-.07,1,1,0,0,1,.08,1.4,1,1,0,0,1-1.41.07"/><path class="cls-8" d="M499.15,280.09h0a1.6,1.6,0,0,1-.12-2.27,1.63,1.63,0,0,1,2.29-.13,1.61,1.61,0,0,1,.12,2.29,1.62,1.62,0,0,1-2.29.11"/><path class="cls-16" d="M506.94,322.23h0a1.62,1.62,0,1,1,2.29-.12,1.63,1.63,0,0,1-2.29.12"/><path class="cls-16" d="M416.34,338.78h0a1.62,1.62,0,1,1,2.29-.12,1.61,1.61,0,0,1-2.29.12"/><path class="cls-16" d="M342,353.91h0a1,1,0,1,1,1.33-1.47,1,1,0,0,1,.08,1.4,1,1,0,0,1-1.41.07"/><path class="cls-16" d="M344.71,289.21h0a1.6,1.6,0,0,1-.12-2.27,1.62,1.62,0,1,1,.12,2.27"/><path class="cls-8" d="M337.12,223.59h0a1.61,1.61,0,0,1-.12-2.28,1.64,1.64,0,0,1,2.29-.12,1.62,1.62,0,1,1-2.17,2.4"/><path class="cls-16" d="M375.55,225.7h0a1,1,0,1,1,1.41-.07,1,1,0,0,1-1.41.07"/><path class="cls-16" d="M401.44,191.07h0a1,1,0,1,1,1.41-.07,1,1,0,0,1-1.41.07"/><path class="cls-16" d="M418.79,218.24h0a1.6,1.6,0,0,1-.12-2.27,1.62,1.62,0,1,1,.12,2.27"/><path class="cls-16" d="M438.67,180.88h0a1,1,0,0,1-.07-1.4,1,1,0,0,1,1.41-.08,1,1,0,0,1,.07,1.4,1,1,0,0,1-1.41.08"/><path class="cls-16" d="M786.73,6.32h0a1.59,1.59,0,0,1-.12-2.27,1.62,1.62,0,1,1,.12,2.27"/><path class="cls-16" d="M794.51,48.45h0a1.6,1.6,0,0,1-.12-2.27,1.62,1.62,0,1,1,.12,2.27"/><path class="cls-16" d="M754,38.73h0a1,1,0,0,1-.08-1.4,1,1,0,1,1,1.48,1.33,1,1,0,0,1-1.4.07"/><path class="cls-16" d="M707.27,27.46h0a1.62,1.62,0,1,1,2.29-.12,1.63,1.63,0,0,1-2.29.12"/><path class="cls-8" d="M703.92,65h0a1.62,1.62,0,1,1,2.29-.12,1.61,1.61,0,0,1-2.29.12"/><path class="cls-16" d="M670.2,32.44h0a1,1,0,0,1-.07-1.4,1,1,0,0,1,1.41-.08,1,1,0,0,1,.07,1.4,1,1,0,0,1-1.41.08"/><path class="cls-16" d="M629.59,80.14h0a1,1,0,1,1,1.41-.07,1,1,0,0,1-1.41.07"/><path class="cls-16" d="M632.29,15.44h0a1.6,1.6,0,0,1-.13-2.27,1.64,1.64,0,0,1,2.3-.13,1.62,1.62,0,1,1-2.17,2.4"/><path class="cls-16" d="M534.23,7.72h0a1.62,1.62,0,1,1,2.29-.12,1.63,1.63,0,0,1-2.29.12"/><path class="cls-13" d="M542,49.85h0a1.62,1.62,0,1,1,2.29-.12,1.61,1.61,0,0,1-2.29.12"/><path class="cls-16" d="M501.48,40.12h0a1,1,0,0,1-.08-1.4,1,1,0,0,1,1.41-.07,1,1,0,0,1,.08,1.4,1,1,0,0,1-1.41.07"/><path class="cls-16" d="M454.77,28.85h0a1.62,1.62,0,1,1,2.29-.12,1.61,1.61,0,0,1-2.29.12"/><path class="cls-16" d="M451.42,66.4h0a1.61,1.61,0,0,1-.12-2.28,1.63,1.63,0,0,1,2.29-.12,1.61,1.61,0,0,1,.12,2.28,1.63,1.63,0,0,1-2.29.12"/><path class="cls-16" d="M417.7,33.83h0a1,1,0,0,1-.07-1.4,1,1,0,1,1,.07,1.4"/><path class="cls-17" d="M377.1,81.54h0a1,1,0,1,1,1.33-1.48,1,1,0,0,1-1.33,1.48"/><path class="cls-13" d="M379.79,16.84h0a1.62,1.62,0,1,1,2.29-.12,1.63,1.63,0,0,1-2.29.12"/></g><g id="etoiles"><path class="cls-8" d="M402.64,262.86a12,12,0,0,0-2.58-.58c-.62-.08-1.23-.12-1.85-.14,0-.62-.06-1.24-.14-1.85a12.64,12.64,0,0,0-.59-2.58,12,12,0,0,0-.58,2.58c-.08.61-.12,1.23-.14,1.85-.62,0-1.24.06-1.85.13a12.64,12.64,0,0,0-2.58.59,12,12,0,0,0,2.58.59c.61.08,1.23.12,1.85.14,0,.62.06,1.23.14,1.85a12,12,0,0,0,.58,2.58,11.44,11.44,0,0,0,.59-2.58c.08-.62.12-1.24.14-1.85.62,0,1.23-.06,1.85-.14A12.64,12.64,0,0,0,402.64,262.86Z"/><path class="cls-18" d="M332.23,257.19a6.68,6.68,0,0,0-1.49-.34,9.45,9.45,0,0,0-1.06-.08c0-.36,0-.71-.08-1.07a7.19,7.19,0,0,0-.34-1.48,7.19,7.19,0,0,0-.34,1.48,9.63,9.63,0,0,0-.08,1.07,9.63,9.63,0,0,0-1.07.08,6.59,6.59,0,0,0-1.48.34,6.56,6.56,0,0,0,1.48.33,9.63,9.63,0,0,0,1.07.08,9.45,9.45,0,0,0,.08,1.07,7.28,7.28,0,0,0,.34,1.49,7.28,7.28,0,0,0,.34-1.49c0-.35.06-.71.08-1.07a9.45,9.45,0,0,0,1.06-.08A7.25,7.25,0,0,0,332.23,257.19Z"/><path class="cls-8" d="M306.63,187.26a12.64,12.64,0,0,0-2.58-.59c-.62-.08-1.23-.12-1.85-.14,0-.61-.06-1.23-.14-1.85a12.64,12.64,0,0,0-.59-2.58,12,12,0,0,0-.58,2.58c-.08.62-.12,1.24-.14,1.85-.62,0-1.24.06-1.85.14a12.64,12.64,0,0,0-2.58.59,12.64,12.64,0,0,0,2.58.59c.61.08,1.23.11,1.85.13,0,.62.06,1.24.14,1.86a12,12,0,0,0,.58,2.57,11.48,11.48,0,0,0,.59-2.57c.08-.62.12-1.24.14-1.86.62,0,1.23-.06,1.85-.14A12,12,0,0,0,306.63,187.26Z"/><path class="cls-8" d="M119.39,160.82a12,12,0,0,0-2.57-.58c-.62-.08-1.24-.12-1.86-.14,0-.62-.06-1.24-.13-1.85a12.64,12.64,0,0,0-.59-2.58,12.64,12.64,0,0,0-.59,2.58c-.08.61-.11,1.23-.14,1.85-.61,0-1.23.06-1.85.14a11.76,11.76,0,0,0-2.57.58,11.24,11.24,0,0,0,2.57.59c.62.08,1.24.12,1.85.14,0,.62.06,1.23.14,1.85a12.64,12.64,0,0,0,.59,2.58,12.64,12.64,0,0,0,.59-2.58c.08-.62.11-1.23.14-1.85.61,0,1.23-.06,1.85-.14A12.7,12.7,0,0,0,119.39,160.82Z"/><path class="cls-8" d="M167,20.68a12.64,12.64,0,0,0-2.58-.59c-.62-.08-1.23-.12-1.85-.14,0-.62-.06-1.23-.14-1.85a12.64,12.64,0,0,0-.59-2.58,12,12,0,0,0-.58,2.58c-.08.62-.12,1.23-.14,1.85-.62,0-1.24.06-1.85.14a11.44,11.44,0,0,0-2.58.59,12,12,0,0,0,2.58.58c.61.08,1.23.12,1.85.14,0,.62.06,1.24.14,1.85a12,12,0,0,0,.58,2.58,11.44,11.44,0,0,0,.59-2.58c.08-.61.12-1.23.14-1.85.62,0,1.23-.06,1.85-.14A12,12,0,0,0,167,20.68Z"/><path class="cls-8" d="M601.19,28.9a12,12,0,0,0-2.58-.58c-.62-.08-1.24-.12-1.85-.14,0-.62-.06-1.24-.14-1.85a12.64,12.64,0,0,0-.59-2.58,12,12,0,0,0-.58,2.58c-.08.61-.12,1.23-.14,1.85-.62,0-1.24.06-1.86.14a12,12,0,0,0-2.57.58,11.48,11.48,0,0,0,2.57.59c.62.08,1.24.12,1.86.14,0,.62.05,1.23.13,1.85a12.64,12.64,0,0,0,.59,2.58,12.64,12.64,0,0,0,.59-2.58c.08-.62.12-1.23.14-1.85.61,0,1.23-.06,1.85-.14A12.64,12.64,0,0,0,601.19,28.9Z"/><path class="cls-8" d="M644,271.05a12.7,12.7,0,0,0-2.57-.59c-.62-.08-1.24-.12-1.86-.14,0-.61-.06-1.23-.14-1.85a12,12,0,0,0-.58-2.58,12.64,12.64,0,0,0-.59,2.58c-.08.62-.12,1.24-.14,1.85-.61,0-1.23.06-1.85.14a12.64,12.64,0,0,0-2.58.59,12.64,12.64,0,0,0,2.58.59c.62.08,1.24.11,1.85.13,0,.62.06,1.24.14,1.86a12.7,12.7,0,0,0,.59,2.57,12.7,12.7,0,0,0,.59-2.57c.08-.62.11-1.24.13-1.86.62,0,1.24-.06,1.86-.14A12,12,0,0,0,644,271.05Z"/><path class="cls-18" d="M361.6,121.17a6.65,6.65,0,0,0-1.49-.33c-.35,0-.71-.07-1.07-.09a9.45,9.45,0,0,0-.08-1.06,7.25,7.25,0,0,0-.33-1.49,7.28,7.28,0,0,0-.34,1.49,9.45,9.45,0,0,0-.08,1.06c-.36,0-.71,0-1.07.08a7.19,7.19,0,0,0-1.48.34,6.59,6.59,0,0,0,1.48.34,9.63,9.63,0,0,0,1.07.08,9.63,9.63,0,0,0,.08,1.07,6.59,6.59,0,0,0,.34,1.48,7.19,7.19,0,0,0,.34-1.48c0-.36.06-.71.08-1.07a9.45,9.45,0,0,0,1.06-.08A7.28,7.28,0,0,0,361.6,121.17Z"/><path class="cls-18" d="M344.45,32.75a7.28,7.28,0,0,0-1.49-.34c-.35,0-.71-.07-1.06-.08,0-.36,0-.71-.09-1.07a6.56,6.56,0,0,0-.33-1.48,7.19,7.19,0,0,0-.34,1.48,9.63,9.63,0,0,0-.08,1.07,9.63,9.63,0,0,0-1.07.08,7.19,7.19,0,0,0-1.48.34,7.19,7.19,0,0,0,1.48.34c.36,0,.71.06,1.07.08a9.45,9.45,0,0,0,.08,1.06,6.68,6.68,0,0,0,.34,1.49,7.28,7.28,0,0,0,.34-1.49c0-.35.06-.71.08-1.06.35,0,.71,0,1.06-.08A7.28,7.28,0,0,0,344.45,32.75Z"/><path class="cls-18" d="M652.67,58.68a6.56,6.56,0,0,0-1.48-.33,9.63,9.63,0,0,0-1.07-.08A9.45,9.45,0,0,0,650,57.2a6.68,6.68,0,0,0-.34-1.49,7.25,7.25,0,0,0-.33,1.49,9.45,9.45,0,0,0-.08,1.06c-.36,0-.71,0-1.07.08a7.28,7.28,0,0,0-1.49.34,6.68,6.68,0,0,0,1.49.34,9.63,9.63,0,0,0,1.07.08,9.63,9.63,0,0,0,.08,1.07,7.16,7.16,0,0,0,.33,1.48,6.59,6.59,0,0,0,.34-1.48,9.63,9.63,0,0,0,.08-1.07,9.63,9.63,0,0,0,1.07-.08A7.19,7.19,0,0,0,652.67,58.68Z"/><path class="cls-18" d="M587.75,277.71a7.25,7.25,0,0,0-1.49-.33,9.63,9.63,0,0,0-1.07-.08,9.45,9.45,0,0,0-.08-1.07,7.25,7.25,0,0,0-.33-1.49,6.68,6.68,0,0,0-.34,1.49,9.45,9.45,0,0,0-.08,1.06c-.36,0-.71,0-1.07.08a7.19,7.19,0,0,0-1.48.34,6.59,6.59,0,0,0,1.48.34,9.63,9.63,0,0,0,1.07.08,9.63,9.63,0,0,0,.08,1.07,6.59,6.59,0,0,0,.34,1.48,6.56,6.56,0,0,0,.33-1.48,9.63,9.63,0,0,0,.08-1.07,9.63,9.63,0,0,0,1.07-.08A7.28,7.28,0,0,0,587.75,277.71Z"/><path class="cls-18" d="M166.48,61.76a7.16,7.16,0,0,0-1.48-.33,9.63,9.63,0,0,0-1.07-.08c0-.36,0-.72-.08-1.07a7.28,7.28,0,0,0-.34-1.49,7.28,7.28,0,0,0-.34,1.49c0,.35-.06.71-.08,1.07a9.45,9.45,0,0,0-1.06.08,6.65,6.65,0,0,0-1.49.33,6.68,6.68,0,0,0,1.49.34,9.45,9.45,0,0,0,1.06.08c0,.36,0,.71.08,1.07a7.19,7.19,0,0,0,.34,1.48,7.19,7.19,0,0,0,.34-1.48,9.63,9.63,0,0,0,.08-1.07A9.63,9.63,0,0,0,165,62.1,6.59,6.59,0,0,0,166.48,61.76Z"/><path class="cls-18" d="M60.25,193.93a6.65,6.65,0,0,0-1.49-.33c-.35,0-.71-.07-1.06-.09,0-.35,0-.71-.08-1.06a7.28,7.28,0,0,0-.34-1.49,7.28,7.28,0,0,0-.34,1.49,9.45,9.45,0,0,0-.08,1.06c-.36,0-.71,0-1.07.08a7.19,7.19,0,0,0-1.48.34,6.59,6.59,0,0,0,1.48.34,9.63,9.63,0,0,0,1.07.08,9.63,9.63,0,0,0,.08,1.07,7.19,7.19,0,0,0,.34,1.48,7.19,7.19,0,0,0,.34-1.48c0-.36.06-.71.08-1.07a9.45,9.45,0,0,0,1.06-.08A7.28,7.28,0,0,0,60.25,193.93Z"/><path class="cls-18" d="M44.45,77A6.68,6.68,0,0,0,43,76.64a9.45,9.45,0,0,0-1.06-.08c0-.36,0-.71-.08-1.07A7.19,7.19,0,0,0,41.48,74a7.19,7.19,0,0,0-.34,1.48c0,.36-.07.71-.08,1.07a9.81,9.81,0,0,0-1.07.08,6.59,6.59,0,0,0-1.48.34,6.56,6.56,0,0,0,1.48.33,9.81,9.81,0,0,0,1.07.08c0,.36,0,.71.08,1.07A7.28,7.28,0,0,0,41.48,80a7.28,7.28,0,0,0,.34-1.49c0-.36.07-.71.08-1.07A9.45,9.45,0,0,0,43,77.31,7.25,7.25,0,0,0,44.45,77Z"/></g></g></g></g></svg>